<svg xmlns="http://www.w3.org/2000/svg" width="1024" height="1024" viewBox="0 0 1024 1024" fill="none" role="img" aria-labelledby="title desc">
  <title id="title">insomniAPP tray icon</title>
  <desc id="desc">A bold sleeping monitor icon with z marks, optimized for tiny app icon sizes.</desc>

  <defs>
    <linearGradient id="outer" x1="128" y1="160" x2="896" y2="960" gradientUnits="userSpaceOnUse">
      <stop stop-color="#2384FF"/>
      <stop offset="1" stop-color="#0E4CC9"/>
    </linearGradient>
    <linearGradient id="screen" x1="512" y1="260" x2="512" y2="690" gradientUnits="userSpaceOnUse">
      <stop stop-color="#E7F5FF"/>
      <stop offset="1" stop-color="#C8E8FF"/>
    </linearGradient>
    <linearGradient id="stand" x1="300" y1="850" x2="724" y2="930" gradientUnits="userSpaceOnUse">
      <stop stop-color="#3C74D9"/>
      <stop offset="1" stop-color="#1E4FAE"/>
    </linearGradient>
    <filter id="shadow" x="70" y="120" width="884" height="840" color-interpolation-filters="sRGB" filterUnits="userSpaceOnUse">
      <feFlood flood-opacity="0" result="BackgroundImageFix"/>
      <feColorMatrix in="SourceAlpha" type="matrix" values="0 0 0 0 0 0 0 0 0 0 0 0 0 0 0 0 0 0 127 0" result="hardAlpha"/>
      <feOffset dy="18"/>
      <feGaussianBlur stdDeviation="18"/>
      <feComposite in2="hardAlpha" operator="out"/>
      <feColorMatrix type="matrix" values="0 0 0 0 0.03 0 0 0 0 0.07 0 0 0 0 0.15 0 0 0 0.35 0"/>
      <feBlend mode="normal" in2="BackgroundImageFix" result="effect1_dropShadow_1_1"/>
      <feBlend mode="normal" in="SourceGraphic" in2="effect1_dropShadow_1_1" result="shape"/>
    </filter>
  </defs>

  <g filter="url(#shadow)">
    <rect x="90" y="165" width="844" height="650" rx="118" fill="url(#outer)" stroke="#80D1FF" stroke-width="18"/>
    <rect x="145" y="220" width="734" height="538" rx="84" fill="url(#screen)"/>

    <path d="M300 510C335 458 403 458 438 510" stroke="#21314E" stroke-width="34" stroke-linecap="round"/>
    <path d="M586 510C621 458 689 458 724 510" stroke="#21314E" stroke-width="34" stroke-linecap="round"/>
    <path d="M454 622C488 654 536 654 570 622" stroke="#2A3D62" stroke-width="24" stroke-linecap="round"/>

    <rect x="430" y="780" width="164" height="70" rx="26" fill="#245BC4"/>
    <rect x="300" y="850" width="424" height="80" rx="32" fill="url(#stand)"/>
  </g>

  <path d="M720 110L792 110L745 176L811 176" stroke="#0D57E0" stroke-width="28" stroke-linecap="round" stroke-linejoin="round"/>
  <path d="M645 138L696 138L662 186L709 186" stroke="#2C7BFF" stroke-width="20" stroke-linecap="round" stroke-linejoin="round"/>
</svg>
